<svg xmlns="http://www.w3.org/2000/svg" viewBox="0 0 71.01 70"><defs><style>.cls-1{fill:#f55d5d;}</style></defs><g id="elements"><g id="woman"><path class="cls-1" d="M54,48.9h-.22a.57.57,0,0,1-.34-.13c-.76-.73-1.5-1.46-2.25-2.2A1.39,1.39,0,0,1,51,46.4l2.11,0-2.61-2.54a.27.27,0,0,0-.2-.06l-1.73,0a.48.48,0,0,1-.39-.14l-2-1.9-.45-.45,2.07-.06,0-.06-2.54-2.49a.38.38,0,0,0-.24-.07l-1.71.09a.46.46,0,0,1-.32-.11l-2.42-2.35-.14-.16L39.32,35l1.41-1.36,1.84-1.79a.5.5,0,0,1,.45-.16c.54,0,1.09.07,1.63.09a.37.37,0,0,0,.25-.07l2.51-2.45s0,0,.07-.09l-2-.06c.06-.07.08-.11.12-.15.76-.74,1.52-1.48,2.29-2.21a.48.48,0,0,1,.32-.13l1.73.05a.48.48,0,0,0,.29-.09l2.48-2.43.1-.08-2.12,0,.15-.18L53,21.69a.57.57,0,0,1,.34-.14H54V16.2H48.94a.5.5,0,0,0,0,.13c0,.6,0,1.19-.06,1.78a.39.39,0,0,1-.11.28c-.75.75-1.51,1.49-2.27,2.23l-.14.11c0-.68,0-1.33,0-2l-.16.12c-.78.76-1.57,1.51-2.34,2.27a.45.45,0,0,0-.12.28c0,.6,0,1.2,0,1.8a.6.6,0,0,1-.16.35c-.71.71-1.43,1.4-2.14,2.1l-.26.24c0-.72,0-1.39,0-2.11l-.21.19-2.35,2.29a.46.46,0,0,0-.16.38c0,.58,0,1.15,0,1.73a.59.59,0,0,1-.15.34L35.5,31.31l-2.67-2.62a.49.49,0,0,1-.15-.34c0-.58,0-1.15,0-1.73a.49.49,0,0,0-.16-.38L30.14,24l-.22-.19c0,.72,0,1.39,0,2.11l-.26-.24c-.72-.7-1.44-1.39-2.14-2.1a.6.6,0,0,1-.16-.35c0-.6,0-1.2-.06-1.8a.44.44,0,0,0-.11-.28l-2.34-2.27-.16-.12c0,.69,0,1.34,0,2l-.14-.11-2.28-2.23a.5.5,0,0,1-.11-.28c0-.59,0-1.18-.06-1.78a.51.51,0,0,0,0-.13H17v5.35h.62a.52.52,0,0,1,.34.14c.76.72,1.51,1.45,2.26,2.18l.15.18-2.12,0a.34.34,0,0,0,.1.08l2.48,2.43a.45.45,0,0,0,.28.09l1.73-.05a.51.51,0,0,1,.33.13c.77.73,1.53,1.47,2.29,2.21l.11.15-2,.06.06.09,2.52,2.45a.33.33,0,0,0,.24.07c.55,0,1.1-.05,1.64-.09a.51.51,0,0,1,.45.16l1.83,1.79L31.69,35l-1.16,1.13-.14.16L28,38.64a.48.48,0,0,1-.32.11l-1.71-.09a.38.38,0,0,0-.24.07l-2.55,2.49s0,0,0,.06l2.07.06c-.18.18-.32.31-.45.45-.65.63-1.31,1.26-1.95,1.9a.48.48,0,0,1-.39.14l-1.73,0a.31.31,0,0,0-.21.06c-.85.83-1.71,1.66-2.6,2.54l2.1,0-.15.17-2.25,2.2a.62.62,0,0,1-.34.13H17v4.3h4.64c0-.31,0-.61,0-.91a.44.44,0,0,1,.11-.29c.76-.75,1.53-1.49,2.3-2.23l.13-.1c0,.69,0,1.34,0,2l.42-.4c.67-.65,1.35-1.31,2-2a.56.56,0,0,0,.18-.42c0-.59,0-1.19.05-1.78a.5.5,0,0,1,.09-.24l2.39-2.32.08,0c0,.69,0,1.36,0,2.07a1.22,1.22,0,0,0,.16-.14c.81-.77,1.61-1.55,2.41-2.33a.46.46,0,0,0,.16-.38c0-.58,0-1.17,0-1.75a.47.47,0,0,1,.12-.3l3.14-3.05,3.14,3.05a.43.43,0,0,1,.13.3c0,.58,0,1.17,0,1.75a.47.47,0,0,0,.17.38l2.4,2.33.17.14c0-.71,0-1.38,0-2.07l.08,0c.8.77,1.6,1.54,2.39,2.32a.36.36,0,0,1,.09.24c0,.59.05,1.19.05,1.78a.54.54,0,0,0,.19.42c.68.64,1.35,1.3,2,2l.42.4c0-.71,0-1.36,0-2l.13.1c.77.74,1.54,1.48,2.3,2.23a.49.49,0,0,1,.11.29l0,.91H54Z"/></g></g></svg>