<svg xmlns="http://www.w3.org/2000/svg" viewBox="0 0 71.01 70"><defs><style>.cls-1{fill:#f55d5d;}</style></defs><g id="elements"><g id="woman"><path class="cls-1" d="M26.43,54.08A2.34,2.34,0,0,0,24.93,52a11,11,0,0,1-1.3-.62,1.25,1.25,0,0,1-.14-2.26,6.69,6.69,0,0,1,1-.6l2.14-1.06a.83.83,0,0,0,.53-1,1.2,1.2,0,0,0,0-.2c-.35-1.14-.16-1.07-1.29-.87a4.54,4.54,0,0,1-3.51-.46,3.05,3.05,0,0,1-1.36-2,5.41,5.41,0,0,1,.18-2.76,24.87,24.87,0,0,1,2.17-4.35c.6-1.1,1.14-2.23,1.67-3.36a2.9,2.9,0,0,0,.22-1,.83.83,0,0,0-.57-.87.74.74,0,0,0-.85.42,3,3,0,0,1-.32.43,1.35,1.35,0,0,1,.73-1.63c.34-.13.46-.28.41-.65a1.79,1.79,0,0,1,.25-.85c.46.44.39,1.22,1.11,1.47a2.53,2.53,0,0,0,.19-.36,8.77,8.77,0,0,0,.37-3,4.74,4.74,0,0,0-2.2-3.56,2.49,2.49,0,0,0-1.92-.3,1.43,1.43,0,0,0-1.06,1.91,1.38,1.38,0,0,0,.21.44A3.35,3.35,0,0,1,22,28.29c-.15.41-.33.81-.53,1.3a6.09,6.09,0,0,1-.87-2.44L20,27.7c-.32-1.56-.62-3,0-4.48a3.27,3.27,0,0,1,3.89-1.61A5.05,5.05,0,0,1,27.42,26,8.08,8.08,0,0,1,27,29.92a49.93,49.93,0,0,1-3.51,7.83,10.19,10.19,0,0,0-1.23,3.78,2.39,2.39,0,0,0,3,2.68,5,5,0,0,0,.55-.17,1.61,1.61,0,0,0,1.17-1.25,18.94,18.94,0,0,1,2.58-5.92c.72-1.13,1.42-2.28,2.08-3.46A4.16,4.16,0,0,0,32,30.68c-.25.13-.44.24-.65.33a1.05,1.05,0,0,1-.31,0,1.08,1.08,0,0,1,0-.31,3.64,3.64,0,0,0-.14-2.26,6.17,6.17,0,0,0-.32-.55l-.69,1-1.33-4.32-.49.3c-.08-.22-.16-.42-.22-.62a15.89,15.89,0,0,1-.56-1.9,3.13,3.13,0,0,1,.61-2.5c.79-1.07,1.62-2.11,2.43-3.17.28-.36.54-.74.82-1.1a1.21,1.21,0,0,1,1.71-.51,6.17,6.17,0,0,0,3.16.14c.34,0,.68-.15,1-.21.55-.11.88.24.68.76a.66.66,0,0,0,.09.69.69.69,0,0,1-.11,1A.92.92,0,0,0,38,18.81a4.74,4.74,0,0,0,2.32.65,1,1,0,0,1,.33.08,2.77,2.77,0,0,1-.38.35,1.82,1.82,0,0,1-1.78,0,2.42,2.42,0,0,0-2.72.38,1,1,0,0,0,1.37,0c.22-.2.36-.18.53.06a4.33,4.33,0,0,0,.36.4c.28.29.29.49,0,.7s-.6.46-.26.94l-.13.07a3.73,3.73,0,0,1-.62-.36A.73.73,0,0,0,36,22a8.89,8.89,0,0,0-.92.4,1.07,1.07,0,0,1,.22.1c.74.5,1.45,1,2.21,1.51s1.52.83,2.29,1.22a.61.61,0,0,0,.79-.16c1.21-1.51,2.2-3.12,1.86-5.18a9,9,0,0,0-.37-1.35,1.5,1.5,0,0,1,.24-1.69c.1-.1.1-.29.2-.4a2.52,2.52,0,0,1,.64-.66c.27-.16.55,0,.71.3-.29.15-.58.28-.34.75A12.82,12.82,0,0,0,45,16.22c.64-.38,1.14-.21,1.39.59l-.4-.09c-.33,0-.47.13-.35.44s.19.56.58.6c.17,0,.33.19.49.29a3.09,3.09,0,0,0,.51.32.68.68,0,0,1,.37,1l-.2-.11c-.39-.25-.46-.21-.66.19a1.85,1.85,0,0,1-.5.64,1.23,1.23,0,0,0-.5,1c0,.12,0,.25,0,.37,0,.61-.11,1.26.8,1.44l0,.13a3.33,3.33,0,0,1-.72.38c-.33.07-.43.25-.52.55a16.61,16.61,0,0,1-.85,2.7A15.74,15.74,0,0,1,42.87,29a.6.6,0,0,0-.13.7A2.54,2.54,0,0,1,43,31.33a.63.63,0,0,0,.28.52,6.9,6.9,0,0,0,3.52.7c.3,0,.41-.26.39-.53s-.06-.44-.08-.66a1.25,1.25,0,0,1,1.22-1.42,1.09,1.09,0,0,0,.51-.21.82.82,0,0,1,1.19.18S50,30,50,30q-.7.24-.57.69a1.22,1.22,0,0,0,1,.53,1.75,1.75,0,0,1,.6,0c.34.06.46.3.39.64-.23,0-.5,0-.63.11a1.45,1.45,0,0,0-.52.76,1.14,1.14,0,0,0,.32,1.06,1.16,1.16,0,0,1,.43.58,1.54,1.54,0,0,1-.11.68h-.13a2.31,2.31,0,0,0-.25-.36.36.36,0,0,0-.54,0,1.93,1.93,0,0,1-.84.32,2.9,2.9,0,0,0-2.54,1.56c-.07.12-.16.24-.27.42a1.72,1.72,0,0,1-.22-1.2.53.53,0,0,0-.56-.61.55.55,0,0,0-.35.1,3.65,3.65,0,0,1-1.9.6c-.74,0-1.08.62-1.46,1.15-.28.37-.57.74-.88,1.09a2.41,2.41,0,0,1-.45.28,3.42,3.42,0,0,1,.06-.57c.09-.34-.07-.4-.35-.32s-.3.15-.46.19a4.09,4.09,0,0,1-1.08.19A2.68,2.68,0,0,0,35.7,39.9c0,.16-.05.32-.09.54.48,0,.91-.11,1.34-.1a11.62,11.62,0,0,1,2.13.16,2.13,2.13,0,0,1,1.34,3.06c-.23.52-.48,1-.68,1.59a3.15,3.15,0,0,0-.19,1c0,.62.22.84.84.86a2.58,2.58,0,0,0,2.42-1.62,2.93,2.93,0,0,1,.63-.94A1.29,1.29,0,0,1,45,44.15a1.88,1.88,0,0,0,.72.07c.76,0,1.13.22,1.25.86l-.48-.1c-.38-.07-.53.07-.5.46A1.31,1.31,0,0,1,46,46c-.15.37.07.56.26.83A2.4,2.4,0,0,1,47,49a3.12,3.12,0,0,1-.18.39l-.38-.67c-.33.16-.61.28-.87.42a.45.45,0,0,0-.24.62c.07.19.19.37.25.57a.77.77,0,0,1-.26.93c0-.05-.1-.08-.11-.12a.82.82,0,0,0-.89-.64,3.21,3.21,0,0,1-1.62-.5A4.25,4.25,0,0,0,41,49.62c-1,0-2,0-3,0-.55,0-.65-.11-.66-.66s.05-1.38,0-2.06a1.79,1.79,0,0,0-1.83-1.82,4.11,4.11,0,0,0-.86,0c-.56,0-.7.15-.79.7a5.62,5.62,0,0,1-.9,2.37A4.54,4.54,0,0,1,29.27,50l-2.18.17a1.13,1.13,0,0,0-.33.08,1.42,1.42,0,0,0,.06.21,3.27,3.27,0,0,0,3,1.47,2.64,2.64,0,0,1,2,.11,1.46,1.46,0,0,1,.39.35,7.09,7.09,0,0,1,.58,1.13,1.53,1.53,0,0,1,0,.6ZM37.09,18.7c-.12-.71-.4-1-.88-.9-.83.11-1.29.53-1.23,1.2Zm-3.85-1.28,0-.1c-.75-.16-.6-.8-.71-1.3l-.82,1.57Z"/><path class="cls-1" d="M28.28,16.26c.17-.61.28-1.13.81-1.24-.08-.74-.18-1.46-.23-2.17a2.27,2.27,0,0,1,.13-.67h.13a1.63,1.63,0,0,1,.17.2c.51.66,1,1.35,1.54,2a.53.53,0,0,1,0,.83c-1,1.28-2.06,2.58-3.08,3.88-.3.39-.53.83-.83,1.23a.6.6,0,0,1-.46.21c-.92-.31-1.83-.66-2.75-1,0,0-.08-.07-.16-.13.35-.46.89-.3,1.3-.47a1.82,1.82,0,0,1,1.39-.2,1.19,1.19,0,0,1,.85-1.07l0-.1a1.25,1.25,0,0,0-.37-.09c-.41,0-.58-.21-.55-.56a1.27,1.27,0,0,0-.3-1,.34.34,0,0,1-.05-.33.38.38,0,0,1,.32-.06,1.16,1.16,0,0,0,1.1-.07c.24-.16.42.05.57.26A5.55,5.55,0,0,0,28.28,16.26Z"/></g></g></svg>