<svg xmlns="http://www.w3.org/2000/svg" viewBox="0 0 71.01 70"><defs><style>.cls-1{fill:#f9e079;}</style></defs><g id="elements"><g id="woman"><path class="cls-1" d="M36.33,48.82c.11-.45.21-.9.33-1.35,1-3.85,3.65-5.85,8-6.24,1.09-.1,1.53.47,1.43,1.63C45.69,47.48,43,50.3,38.38,51l-.81.11V54.7c0,1,0,2.1,0,3.14,0,.88-.32,1.49-1.25,1.58s-1.37-.56-1.39-1.58c0-2.05,0-4.11,0-6.17a3.32,3.32,0,0,0,0-.48c-1.16-.31-2.29-.51-3.36-.9-3.67-1.32-5-4.63-5.14-7.8-.06-.94.51-1.38,1.59-1.26,4,.45,6.89,2.21,7.89,6.5.08.37.18.74.28,1.11Z"/><path class="cls-1" d="M36.33,29.54c.09-.38.19-.75.27-1.12,1-4.28,4-6.07,8-6.48,1.08-.11,1.54.46,1.45,1.61-.37,4.91-3.35,7.8-8.54,8.21a13,13,0,0,1-6.57-1,8.46,8.46,0,0,1-4.61-7.64c.06-.93.57-1.3,1.66-1.21A8.19,8.19,0,0,1,36,29c0,.17.08.34.11.51Z"/><path class="cls-1" d="M36.18,39.47c.38-1.22.6-2.16,1-3a8.33,8.33,0,0,1,7.69-4.86c.91,0,1.31.52,1.26,1.52a8.09,8.09,0,0,1-6.62,8,12.89,12.89,0,0,1-8.77-.81c-3.05-1.52-4.11-4.29-4.32-7.47-.06-.94.53-1.31,1.62-1.22,4.33.35,7,2.61,8,6.83C36,38.67,36.06,38.92,36.18,39.47Z"/><path class="cls-1" d="M39.72,17.42a9.47,9.47,0,0,1-2.6,5.95,1.13,1.13,0,0,1-1.87-.05c-3.4-4.08-3.31-8,0-12a1.12,1.12,0,0,1,1.87,0A9.57,9.57,0,0,1,39.72,17.42Z"/></g></g></svg>