<svg xmlns="http://www.w3.org/2000/svg" viewBox="0 0 71.01 70"><defs><style>.cls-1{fill:#f9e079;}</style></defs><g id="elements"><path class="cls-1" d="M49.87,40.1a.78.78,0,0,1,1.2.94c-3.17,6.69-10,11.72-17.64,10.06-7.24-1.33-11.89-5.7-13.56-12.85-2.1-7.88,2.79-15.19,9.87-18.53a.78.78,0,0,1,.94,1.19C20.13,34.41,36.25,50.78,49.87,40.1Z"/><path class="cls-1" d="M39.24,33.86a.4.4,0,0,1-.58-.42c.26-1.57.49-3,.77-4.51a.91.91,0,0,0-.3-1c-1.09-1-2.17-2.06-3.23-3.14a.4.4,0,0,1,.23-.67c1.64-.24,3.21-.46,4.77-.74a.45.45,0,0,0,.28-.2c.76-1.39,1.46-2.79,2.2-4.24a.4.4,0,0,1,.7,0c.75,1.44,1.47,2.84,2.23,4.21a.47.47,0,0,0,.29.2c1.56.27,3.14.49,4.7.71a.39.39,0,0,1,.22.66c-.93,1-1.84,2-2.8,2.88a1.65,1.65,0,0,0-.56,1.73c.29,1.3.48,2.63.7,4a.41.41,0,0,1-.56.44c-1.5-.7-2.88-1.54-4.41-2.23a.47.47,0,0,0-.35,0C42.13,32.31,40.74,33.05,39.24,33.86Z"/></g></svg>