<svg xmlns="http://www.w3.org/2000/svg" viewBox="0 0 71.01 70"><defs><style>.cls-1{fill:#be7cf5;}</style></defs><g id="elements"><g id="woman"><path class="cls-1" d="M22.43,41.15l0-1.1,1.29-.35a1.14,1.14,0,0,0,.09-.53c0-.29,0-.68,0-1.15s0-1,0-1.62l0-3.49c0-.57,0-1.09,0-1.56s0-.86-.06-1.18a4.2,4.2,0,0,0-.05-.51l-1.41-.31,0-1.1H28a6.88,6.88,0,0,1,4,1A3.24,3.24,0,0,1,33.35,32a3.8,3.8,0,0,1-.65,2.17,4.3,4.3,0,0,1-1.84,1.53,6.86,6.86,0,0,1-2.89.56,6,6,0,0,1-.74,0l-.71-.11V34.62a2.52,2.52,0,0,0,.6.18,5.21,5.21,0,0,0,.85.06,2.07,2.07,0,0,0,1.63-.64,2.73,2.73,0,0,0,.59-1.88,2.86,2.86,0,0,0-.74-2.17,2.78,2.78,0,0,0-2-.69h-.59c0,.12,0,.32,0,.59s0,.66,0,1.12,0,1,0,1.72l0,3.49c0,.6,0,1.14,0,1.61s0,.85.05,1.14,0,.47.06.53l1.78.33-.07,1.14Z"/><path class="cls-1" d="M34.84,41.15l0-1.1,1.38-.35a1.24,1.24,0,0,0,.09-.56c0-.32,0-.72,0-1.22s0-1,0-1.63V33.11c0-.62,0-1.17,0-1.66s0-.9,0-1.21a1.2,1.2,0,0,0-.09-.56l-1.38-.33,0-1.1h5.91l0,1.1-1.34.33a2.46,2.46,0,0,0-.08.59c0,.32,0,.73-.05,1.21s0,1,0,1.63v3.18c0,.59,0,1.12,0,1.6s0,.87.05,1.19a3.07,3.07,0,0,0,.08.62l1.34.35,0,1.1Zm4-5.74V33.72c.36,0,.78.07,1.23.09l1.71,0,1.72,0c.44,0,.84-.05,1.21-.09v1.69c-.31,0-.69,0-1.15-.06s-1,0-1.78,0-1.33,0-1.79,0S39.11,35.38,38.8,35.41Zm3.93,5.74,0-1.1L44,39.7a4.1,4.1,0,0,0,.08-.62c0-.32,0-.72,0-1.19s0-1,0-1.6V33.11c0-.6,0-1.15,0-1.63s0-.89,0-1.21a3.18,3.18,0,0,0-.08-.59l-1.34-.33,0-1.1h5.91l.07,1.1-1.39.33a3.37,3.37,0,0,0-.08.61q0,.51-.06,1.26c0,.49,0,1,0,1.56v3.18c0,.51,0,1,0,1.52s0,.91.06,1.25a4.11,4.11,0,0,0,.08.64l1.39.35-.07,1.1Z"/></g></g></svg>