<svg xmlns="http://www.w3.org/2000/svg" viewBox="0 0 71.01 70"><defs><style>.cls-1{fill:#f55d5d;}</style></defs><g id="elements"><g id="woman"><path class="cls-1" d="M36.33,49.4c.11-.45.21-.91.33-1.36,1-3.84,3.65-5.84,8-6.23,1.09-.1,1.53.47,1.43,1.63-.38,4.62-3.06,7.44-7.69,8.1l-.81.12v3.62c0,1,0,2.09,0,3.14,0,.88-.32,1.49-1.25,1.58s-1.37-.56-1.39-1.58c0-2.06,0-4.11,0-6.17a3.47,3.47,0,0,0,0-.49c-1.16-.3-2.29-.51-3.36-.89-3.67-1.32-5-4.64-5.14-7.8-.06-.94.51-1.38,1.59-1.26,4,.45,6.89,2.21,7.89,6.49.08.38.18.74.28,1.11Z"/><path class="cls-1" d="M36.33,30.11c.09-.37.19-.74.27-1.11,1-4.28,4-6.07,8-6.49,1.08-.11,1.54.46,1.45,1.62-.37,4.9-3.35,7.79-8.54,8.2a13,13,0,0,1-6.57-1,8.47,8.47,0,0,1-4.61-7.64c.06-.93.57-1.3,1.66-1.21a8.19,8.19,0,0,1,8,7.08c0,.17.08.34.11.51Z"/><path class="cls-1" d="M36.18,40.05c.38-1.22.6-2.17,1-3a8.31,8.31,0,0,1,7.69-4.86c.91,0,1.31.51,1.26,1.51a8.09,8.09,0,0,1-6.62,8,12.89,12.89,0,0,1-8.77-.81c-3.05-1.52-4.11-4.29-4.32-7.48-.06-.93.53-1.31,1.62-1.22,4.33.36,7,2.62,8,6.84Z"/><path class="cls-1" d="M39.72,18a9.42,9.42,0,0,1-2.6,5.94,1.12,1.12,0,0,1-1.87-.05c-3.4-4.08-3.31-8,0-12a1.13,1.13,0,0,1,1.87,0A9.55,9.55,0,0,1,39.72,18Z"/></g></g></svg>