<svg xmlns="http://www.w3.org/2000/svg" viewBox="0 0 71.01 70"><defs><style>.cls-1{fill:#6df785;}</style></defs><g id="elements"><g id="woman"><path class="cls-1" d="M36.33,49.14c.11-.46.21-.91.33-1.36,1-3.85,3.65-5.84,8-6.24,1.09-.09,1.53.48,1.43,1.64-.38,4.61-3.06,7.44-7.69,8.1l-.81.11V55c0,1,0,2.09,0,3.14,0,.88-.32,1.49-1.25,1.57s-1.37-.55-1.39-1.57c0-2.06,0-4.12,0-6.17a3.47,3.47,0,0,0,0-.49c-1.16-.3-2.29-.51-3.36-.89-3.67-1.32-5-4.64-5.14-7.81-.06-.94.51-1.37,1.59-1.25,4,.44,6.89,2.21,7.89,6.49.08.37.18.74.28,1.11Z"/><path class="cls-1" d="M36.33,29.85c.09-.37.19-.74.27-1.12,1-4.27,4-6.06,8-6.48,1.08-.11,1.54.46,1.45,1.62-.37,4.9-3.35,7.79-8.54,8.2a13,13,0,0,1-6.57-1,8.47,8.47,0,0,1-4.61-7.64c.06-.93.57-1.3,1.66-1.21,4.37.35,7.1,2.77,8,7.08,0,.17.08.34.11.51Z"/><path class="cls-1" d="M36.18,39.78c.38-1.22.6-2.16,1-3a8.3,8.3,0,0,1,7.69-4.85c.91,0,1.31.51,1.26,1.51a8.09,8.09,0,0,1-6.62,8,12.83,12.83,0,0,1-8.77-.8c-3.05-1.52-4.11-4.29-4.32-7.48-.06-.94.53-1.31,1.62-1.22,4.33.36,7,2.62,8,6.83C36,39,36.06,39.23,36.18,39.78Z"/><path class="cls-1" d="M39.72,17.73a9.42,9.42,0,0,1-2.6,5.95,1.13,1.13,0,0,1-1.87-.05c-3.4-4.08-3.31-8,0-12a1.12,1.12,0,0,1,1.87,0A9.52,9.52,0,0,1,39.72,17.73Z"/></g></g></svg>