<svg xmlns="http://www.w3.org/2000/svg" viewBox="0 0 71.01 70"><defs><style>.cls-1{fill:#f55d5d;}</style></defs><g id="elements"><g id="woman"><path class="cls-1" d="M39.36,51.17c.12,1.19,0,2.48-1.3,1.21l-.36,1.56c-1-.93-1.15-1.19-1.74.18-.63-1.1-.87-1-1.91-.33l-.24-1.54-1.23.7-.12-1.61c-1.53,1-1.14-.13-.85-1.32l-1.2.24c6.14-8.71-.62-2.94-6.23-4.49,2.07,2.94,2.18,6.51-.06,1.17-1.25,1.64-4.1-.91-3-2.34,0-1.9-1.13,1.16-.91,2-.57,2.3-3.57-.55-1.58-2.18-1.35.73-3.65.64-1.73-.93L15.11,43c1.7-1.18-.65-2.75-1.19-4.21,4.56-.1-.92-.89-.31-3.53,4.74,2.65.65,0,1.91-3.46,1.08,3.66,2.88-.37,2.69,2.53-.95,1.73-1.23,2.43.88,1.11.23,2.56-2.53,6.73,1,2.33a13,13,0,0,1,0,3.53,7.93,7.93,0,0,1,1.73-3.12l.22,2a4.58,4.58,0,0,1,1.86-.92c-.16,2.12-4.34,5.35,0,4.29,1.78,4,4-2.58,6.55-2.68v-.65c-.78.13-2.91.21-2.41-1.17l-1.21.84V38.5l-1.5.69L25.46,38l-1.33.43c1.12-2.22-2.26-.64-.3-2.6-1.38.11-2,0-.75-1.09-1.48,0-1.87-.22-.46-1.18l-1.69-.35.93-.83-1.61-.6,1-.69-1.45-.93,1.15-.5-1.1-.82,1.39-.38-1.6-1.07,1.73-.21c-.56-1.88-2.93-3.14-1.19-3.49L18,21.62l.88-.22A12.09,12.09,0,0,1,16.5,19c4.23.47,14.47,5.66,11.8,10.55C26.84,37,33.44,31.69,35,27.82c-1,.12-2.3-1.27-2.84-.18-1-4,8.12-3.54,6.8.81.36,3.69,4.17,8.1,4.67,1.78-3.42-5.31,6.49-11.31,11.48-11.29a5.94,5.94,0,0,1-2.44,2.18l1,.33-2.26,1.88,1.51.08c-.84,1.48-4.81,2.46-1.4,2.54L49.8,27.12c1.87-.14,1.79.15.38,1.17l1.3.52-1.2.74,1.27.49c-1,.63-1.84.86-.49,1.75l-1.53.54.71.65L49,33.33l.79.91-1.67.33.9,1.22h-1.4l.53.94c-1.28-.18-1.34.17-1,1.37-1.06-.38-1.44-.48-1.27.83l-1.21-.56v1.21l-1.15-.73-.24,1.26c-3.81-1.4,1.37,3.21,2.45,4.24,2.17,1,1.52-2.08,3.52-1.05.76-1.93.8-3.92,1.53-5.87l.16,1.06c.51-.63.26-1.52,1.07-2.11,0,2.73.57-1.08,1.57-1.61-.17,2.37.86-1.15,1.47-1.72.43,1.25-1.06,2.37-1.47,3.72l.38-.15-.06.52c1.82-2.14.91-.48,3.11-2.72-.66,1.93-2.46,3.27-3.48,5.06.55,0,2.3-2.83,1.73-1,.79-.7,1.13-1.75,2.2-2-.57,1.39-1.93,2.1-2.65,3.35,3.77-2.94,0,.61-1.52,2.07,4.6-3.07-.13.76-2.09,2.09-.64,3-3.55,4-3,8-.43-.23-.66-.58-1.12-.16-1.51-1.14-2.61-1.45-3.7-2.79,1.7-1.18,7-4,1.95-3.27-6.47.7-7.88-3.09-3.68,4.74l-1.2-.32C40.86,51.38,40.56,52.4,39.36,51.17Z"/><path class="cls-1" d="M32,20.71a.32.32,0,0,1-.46-.33c.21-1.25.39-2.42.61-3.58a.73.73,0,0,0-.24-.76c-.86-.83-1.72-1.63-2.56-2.48A.33.33,0,0,1,29.5,13c1.29-.19,2.54-.36,3.78-.58a.4.4,0,0,0,.22-.16c.6-1.1,1.16-2.22,1.74-3.36a.31.31,0,0,1,.56,0c.59,1.14,1.16,2.24,1.77,3.33a.32.32,0,0,0,.22.16c1.24.22,2.49.39,3.73.57a.3.3,0,0,1,.17.52c-.73.77-1.45,1.55-2.21,2.28A1.31,1.31,0,0,0,39,17.15c.23,1,.38,2.09.56,3.19a.32.32,0,0,1-.44.34c-1.19-.56-2.29-1.22-3.5-1.77a.39.39,0,0,0-.28,0C34.25,19.48,33.15,20.07,32,20.71Z"/></g></g></svg>