<svg xmlns="http://www.w3.org/2000/svg" viewBox="0 0 71.01 70"><defs><style>.cls-1{fill:#f9e079;}</style></defs><g id="elements"><g id="woman"><path class="cls-1" d="M38,48.66c-3.31-1.18-5.71-4.12-6.66-8.15-.43-1.83-.55-4.86-.19-4.86a5.1,5.1,0,0,1,.7,1.85,13.45,13.45,0,0,0,2.56,5.32c1.62,1.7,5.61,2.36,7.9,1.32a3.45,3.45,0,0,0,1.74-4.63c-.6-1.45-2-1.94-4.51-1.61a9.5,9.5,0,0,1-2-4.65l1.6.14c1.92.18,3.37-.25,4.13-1.21s.69-1.25-.1-2.16C42,28.69,40,29,35.83,31.22l-2.08-3.5.87-.67c2.19-1.67,6-2.51,8.17-1.79a5.09,5.09,0,0,1,3,5.41,7.57,7.57,0,0,1-2.35,4.12l-.79.5,1.09.49c1.85.83,3,.19,4.32-2.44,1.87-3.65,3.08-4.6,5.89-4.6a3.71,3.71,0,0,1,2.73.8c2.38,1.67,3.68,5.13,3.4,9.06-.36,5-2.72,8-6.24,8a4.4,4.4,0,0,1-4.16-2.27,7.63,7.63,0,0,1-.77-5.38c.24-.58.29-.6.3-.14a4.08,4.08,0,0,0,1.91,2.72c2.2,1.14,5.35-.29,6.6-3,1-2.05.44-6-.86-6.7a4.07,4.07,0,0,0-1.49-.26c-1.17,0-2.09.84-3.38,3.09a12.08,12.08,0,0,1-1.67,2.23c-.76.73-1,.82-2.57.82H46.07l.56,1.23a8.58,8.58,0,0,1-.09,6.36,7.15,7.15,0,0,1-3.82,3.47A9.4,9.4,0,0,1,38,48.66Zm6.45-23.78c-.76-1.29-1.23-3.7-.72-3.7a8.13,8.13,0,0,0,3.13,3.25c2.35,1.14,4.73.68,7.34-1.41a3.43,3.43,0,0,1,1.12-.73c.64,1,1.74,1.8,2.1,2.94,0,.49-2.08,1.88-3.72,2.49C49.65,28.9,46.88,28.43,44.48,24.88Zm2.05-3L49.18,19l3,2.72c-1,.83-1.74,2.12-2.89,2.78C48.33,23.78,47,23,46.53,21.9Z"/><path class="cls-1" d="M38.62,33.48H36.37a12.23,12.23,0,0,0-2.57-6.2l1.59-1.6a1.4,1.4,0,0,0-2-2l-1.6,1.6a12.19,12.19,0,0,0-6.2-2.58V20.46a1.41,1.41,0,0,0-2.81,0v2.25a12.16,12.16,0,0,0-6.2,2.58L15,23.69a1.41,1.41,0,0,0-2,2l1.6,1.6A12.16,12.16,0,0,0,12,33.48H9.78a1.41,1.41,0,0,0,0,2.81H12a12.19,12.19,0,0,0,2.58,6.2L13,44.09a1.39,1.39,0,0,0,0,2,1.41,1.41,0,0,0,1,.42,1.37,1.37,0,0,0,1-.42l1.6-1.59a12.23,12.23,0,0,0,6.2,2.57V49.3a1.41,1.41,0,1,0,2.81,0V47.05a12.27,12.27,0,0,0,6.2-2.57l1.6,1.59a1.38,1.38,0,0,0,2,0,1.39,1.39,0,0,0,0-2l-1.59-1.6a12.27,12.27,0,0,0,2.57-6.2h2.25a1.41,1.41,0,1,0,0-2.81Zm-13-7.93A9.42,9.42,0,0,1,29.8,27.3l-3.28,3.28a4.27,4.27,0,0,0-.91-.38Zm1.63,9.33a3,3,0,1,1-3-3A3,3,0,0,1,27.24,34.88ZM22.8,25.55V30.2a4.35,4.35,0,0,0-.92.38L18.6,27.3A9.42,9.42,0,0,1,22.8,25.55Zm-6.18,3.73,3.28,3.28a4.35,4.35,0,0,0-.38.92H14.87A9.42,9.42,0,0,1,16.62,29.28Zm-1.75,7h4.65a4.27,4.27,0,0,0,.38.91l-3.28,3.28A9.42,9.42,0,0,1,14.87,36.29Zm7.93,7.92a9.29,9.29,0,0,1-4.2-1.74l3.28-3.28a5,5,0,0,0,.92.38v4.64Zm2.81,0V39.57a4.86,4.86,0,0,0,.91-.38l3.28,3.28A9.3,9.3,0,0,1,25.61,44.21Zm6.18-3.73L28.51,37.2a4.86,4.86,0,0,0,.38-.91h4.64A9.3,9.3,0,0,1,31.79,40.48Zm-2.9-7a5,5,0,0,0-.38-.92l3.28-3.28a9.29,9.29,0,0,1,1.74,4.2Z"/></g></g></svg>