<svg xmlns="http://www.w3.org/2000/svg" viewBox="0 0 71.01 70"><defs><style>.cls-1{fill:#be7cf5;}</style></defs><g id="elements"><g id="woman"><path class="cls-1" d="M24.78,41.15l-.06-1.1,1.38-.35a1.63,1.63,0,0,0,.09-.56c0-.32,0-.72,0-1.22s0-1,0-1.63V33.11c0-.62,0-1.17,0-1.66s0-.9,0-1.21a1.57,1.57,0,0,0-.09-.56l-1.38-.33.06-1.1h5.91l.09,1.1-1.41.33a2.71,2.71,0,0,0-.07.59c0,.32,0,.73-.06,1.21s0,1,0,1.63v3.18c0,.59,0,1.12,0,1.6s0,.87.06,1.19a3.37,3.37,0,0,0,.07.62l1.41.35-.09,1.1Z"/><path class="cls-1" d="M32.38,28.25h6.07A8.32,8.32,0,0,1,44,29.91a5.67,5.67,0,0,1,2,4.6A6.37,6.37,0,0,1,45,37.94a6.45,6.45,0,0,1-2.58,2.35,8.17,8.17,0,0,1-3.81.86H32.38l-.08-1.1,1.4-.35a5.45,5.45,0,0,0,.11-1.1c0-.65,0-1.41,0-2.31V33.11c0-.93,0-1.71,0-2.34a5.3,5.3,0,0,0-.11-1.09l-1.4-.33Zm4.49,1.45c0,.1,0,.3,0,.58s0,.67,0,1.13,0,1,0,1.7v3.18c0,.38,0,.78,0,1.2s0,.81.06,1.16,0,.65.06.85a9.63,9.63,0,0,0,1,.14,8.24,8.24,0,0,0,1,.06,3.55,3.55,0,0,0,2.8-1.08,5,5,0,0,0,1-3.38,8.44,8.44,0,0,0-.35-2.64,4.53,4.53,0,0,0-1-1.74,3.81,3.81,0,0,0-1.41-1,4.46,4.46,0,0,0-1.67-.31l-.68,0C37.33,29.63,37.1,29.66,36.87,29.7Z"/></g></g></svg>