<svg xmlns="http://www.w3.org/2000/svg" viewBox="0 0 71.01 70"><defs><style>.cls-1{fill:#f55d5d;}</style></defs><g id="elements"><g id="woman"><path class="cls-1" d="M34.35,34.39c-1.35,0-2.66,0-4,0-.21,0-.5-.32-.6-.55a3.91,3.91,0,0,0-4.1-2.46,2.66,2.66,0,0,0-2.16,2.5A1.4,1.4,0,0,0,25,35.2c1.12.11,1.27.31,1.05,1.44a4.64,4.64,0,0,1-6.73,3.06A5.79,5.79,0,0,1,16,33.52a9.54,9.54,0,0,1,13-7.86,9.26,9.26,0,0,1,5,4.53A7.53,7.53,0,0,1,34.35,34.39Z"/><path class="cls-1" d="M36.77,34.39c-.63-3.48.83-6,3.57-7.78A9,9,0,0,1,49.72,26a9,9,0,0,1,5.36,8.36,5.57,5.57,0,0,1-6.23,5.81A4.37,4.37,0,0,1,45,36a.7.7,0,0,1,.66-.84c1.5-.22,1.85-.5,1.86-1.44a2.59,2.59,0,0,0-2.07-2.39,3.77,3.77,0,0,0-4.1,2.41.82.82,0,0,1-.95.62C39.2,34.38,38,34.39,36.77,34.39Z"/><path class="cls-1" d="M35.51,28.37a12.28,12.28,0,0,0-4.36-4.19.83.83,0,0,1-.33-.55,6.5,6.5,0,0,1,1.23-5c.79-1,1.64-2,2.49-2.93.67-.75,1.31-.73,2,0s1.45,1.67,2.17,2.51a6.62,6.62,0,0,1,1.53,5.29.94.94,0,0,1-.31.65A12.62,12.62,0,0,0,35.51,28.37Z"/><path class="cls-1" d="M36.59,42.87H41l.13.3a1.27,1.27,0,0,0,1.48.94,1.37,1.37,0,0,0,1.11-1.38c.11-1.1.36-1.27,1.43-1a3.21,3.21,0,0,1,2.17,4,4.41,4.41,0,0,1-3.7,3.38c-3.08.48-6.07-1.14-6.78-3.75A17,17,0,0,1,36.59,42.87Z"/><path class="cls-1" d="M34.33,42.84c.27,2.27-.3,4.11-2.19,5.26a6.12,6.12,0,0,1-6.47.39A4.13,4.13,0,0,1,24,43.18a2.92,2.92,0,0,1,2.31-1.52c.65-.09,1,.12,1,.83,0,.23,0,.54.1.68.33.36.72.86,1.12.9a1.63,1.63,0,0,0,1.23-.7.91.91,0,0,1,.93-.54C31.88,42.85,33.07,42.84,34.33,42.84Z"/><path class="cls-1" d="M35.49,40.52H30.17A1.93,1.93,0,0,1,28,38.61a2,2,0,0,1,2.15-1.92H40.83a2,2,0,0,1,2.18,2c0,1.13-.87,1.84-2.19,1.85Z"/><path class="cls-1" d="M37.87,50.3a4.57,4.57,0,0,0-1.74,3.28c0,.25-.4.46-.61.69-.21-.23-.58-.46-.6-.71a4.63,4.63,0,0,0-1.74-3.26l2.32-2.15Z"/></g></g></svg>