<svg xmlns="http://www.w3.org/2000/svg" viewBox="0 0 71.01 70"><defs><style>.cls-1{fill:#be7cf5;}</style></defs><g id="elements"><g id="woman"><rect class="cls-1" x="7.63" y="24.03" width="3.75" height="8.55"/><rect class="cls-1" x="7.63" y="28.84" width="14.26" height="3.75"/><rect class="cls-1" x="18.14" y="24.03" width="3.75" height="8.55"/><rect class="cls-1" x="18.14" y="38.29" width="3.75" height="8.55" transform="translate(40.03 85.13) rotate(180)"/><rect class="cls-1" x="7.63" y="38.29" width="14.26" height="3.75" transform="translate(29.53 80.33) rotate(180)"/><rect class="cls-1" x="7.63" y="38.29" width="3.75" height="8.55" transform="translate(19.02 85.13) rotate(180)"/><rect class="cls-1" x="12.89" y="28.84" width="3.75" height="13.2" transform="translate(29.53 70.88) rotate(180)"/><rect class="cls-1" x="28.37" y="19.03" width="3.75" height="8.55"/><rect class="cls-1" x="28.37" y="23.84" width="14.26" height="3.75"/><rect class="cls-1" x="38.88" y="19.03" width="3.75" height="8.55"/><rect class="cls-1" x="38.88" y="33.29" width="3.75" height="8.55" transform="translate(81.51 75.13) rotate(180)"/><rect class="cls-1" x="28.37" y="33.29" width="14.26" height="3.75" transform="translate(71.01 70.33) rotate(180)"/><rect class="cls-1" x="28.37" y="33.29" width="3.75" height="8.55" transform="translate(60.5 75.13) rotate(180)"/><rect class="cls-1" x="33.63" y="23.84" width="3.75" height="13.2" transform="translate(71.01 60.88) rotate(180)"/><rect class="cls-1" x="49.12" y="24.03" width="3.75" height="8.55"/><rect class="cls-1" x="49.12" y="28.84" width="14.26" height="3.75"/><rect class="cls-1" x="59.62" y="24.03" width="3.75" height="8.55"/><rect class="cls-1" x="59.62" y="38.29" width="3.75" height="8.55" transform="translate(123 85.13) rotate(180)"/><rect class="cls-1" x="49.12" y="38.29" width="14.26" height="3.75" transform="translate(112.49 80.33) rotate(180)"/><rect class="cls-1" x="49.12" y="38.29" width="3.75" height="8.55" transform="translate(101.98 85.13) rotate(180)"/><rect class="cls-1" x="54.37" y="28.84" width="3.75" height="13.2" transform="translate(112.49 70.88) rotate(180)"/></g></g></svg>