<svg xmlns="http://www.w3.org/2000/svg" viewBox="0 0 71.01 70"><defs><style>.cls-1{fill:#be7cf5;}</style></defs><g id="elements"><g id="woman"><path class="cls-1" d="M20.31,28.25H25L29.54,38H28.9L33,28.25h4.64l0,1.1-1.38.33a7.86,7.86,0,0,0,0,1c0,.45,0,1,0,1.76l.13,3.86c0,.62.06,1.17.08,1.66s.05.89.09,1.19,0,.48,0,.56l1.41.35-.07,1.1h-6L32,40.05l1.41-.35c0-.06,0-.23,0-.52s0-.67,0-1.15,0-1.06,0-1.72l-.07-7.42h1L29.16,41.21H27.78L21.91,28.89H23.3v7.56c0,1.12,0,1.93,0,2.4a7.79,7.79,0,0,0,.06.85l1.51.35-.06,1.1H20L20,40.05l1.51-.35c0-.11,0-.31.05-.62s0-.68,0-1.12,0-.89,0-1.36l.07-4.11c0-.78,0-1.39,0-1.85s0-.76,0-.94l-1.38-.35Z"/><path class="cls-1" d="M50.46,29.7,45.8,37.13l1-2.2v3q0,.4,0,.78c0,.25,0,.46,0,.64a2.37,2.37,0,0,0,0,.33l1.54.33-.06,1.12H42.22L42.15,40l1.54-.33a2.37,2.37,0,0,0,0-.33c0-.18,0-.39,0-.64s0-.51,0-.78,0-.54,0-.82v-2.2l.72,2.2L40.13,29.7,39,29.35l.06-1.1h5.8l.07,1.1-1.38.35,2.79,4.79h-.53l2.79-4.79-1.54-.35.07-1.1h4.35l.09,1.1Z"/></g></g></svg>