<svg xmlns="http://www.w3.org/2000/svg" viewBox="0 0 71.01 70"><defs><style>.cls-1{fill:#be7cf5;}</style></defs><g id="elements"><g id="woman"><path class="cls-1" d="M30.61,28.12,31.12,32l-1.36.11-.88-2.53a2.42,2.42,0,0,0-.47-.05H26.7a1.28,1.28,0,0,0-.39,0c0,.09,0,.36,0,.8s0,1,0,1.62,0,1.27,0,1.93v2c0,.82,0,1.57,0,2.23s0,1.17,0,1.49l1.91.31-.06,1.14H21.34L21.28,40l1.91-.31c0-.32,0-.82,0-1.49s0-1.41,0-2.23v-2c0-.66,0-1.3,0-1.93s0-1.17,0-1.62,0-.71,0-.8a1.33,1.33,0,0,0-.39,0H21.07a2.78,2.78,0,0,0-.52.05l-.81,2.57-1.36-.13.46-3.93.62,0c.27,0,.56,0,.86,0l.88,0,.73,0h5.59l.72,0,.9,0c.31,0,.59,0,.85,0Z"/><path class="cls-1" d="M42.46,32.36,38.7,41.21H37.56l-5-11.51-1.14-.35.09-1.1h5.53l0,1.1L36,29.7l3.47,8.53H38.44l3.07-7.8Zm3.23,8.85-5-11.51-1.1-.35.06-1.1h5.72l.06,1.1L44,29.7l3.54,8.53h-.95l3.23-8.53-1.51-.35.06-1.1h4.51l.06,1.1-1.14.35-5,11.51Z"/></g></g></svg>