<svg xmlns="http://www.w3.org/2000/svg" viewBox="0 0 71.01 70"><defs><style>.cls-1{fill:#be7cf5;}</style></defs><g id="elements"><g id="woman"><path class="cls-1" d="M26.79,41.15l-.09-1.1L28,39.7a4.22,4.22,0,0,0,.05-.56c0-.32,0-.72,0-1.21s0-1,0-1.62l0-3.23c0-.61,0-1.16,0-1.64s0-.89,0-1.2,0-.5,0-.54l-1.41-.35,0-1.1h6.57l1.1,0,1.27-.05c.41,0,.75,0,1-.06l.59,3.27L36,31.57l-.85-1.94a2.31,2.31,0,0,0-.5-.07H31.71a2.45,2.45,0,0,0-.59.07,2.18,2.18,0,0,1,0,.25,3.89,3.89,0,0,0,0,.39v2l0,5.08c0,.28,0,.59,0,.92s0,.64.06.9a4.24,4.24,0,0,0,0,.49L33,40,33,41.15ZM34.31,37l-.22-1.54-.6-.07-.66,0H31.58l-.72,0-.55,0V33.87l.56.06c.21,0,.45,0,.71,0h1.25c.3,0,.56,0,.78,0a1.88,1.88,0,0,0,.48-.07l.22-1.44h1.27V37Z"/><path class="cls-1" d="M43,29.68a1.68,1.68,0,0,0-.08.54c0,.31,0,.71-.06,1.21s0,1,0,1.63l0,8a5.25,5.25,0,0,1-.52,2.41,3.8,3.8,0,0,1-1.44,1.58,4.12,4.12,0,0,1-2.17.56,4.39,4.39,0,0,1-2.24-.51,1.48,1.48,0,0,1-.88-1.32,1.16,1.16,0,0,1,.3-.85,1.06,1.06,0,0,1,.79-.31,1.79,1.79,0,0,1,.79.18,3,3,0,0,1,.75.54l1.56,1.5-1.23-.44a1.21,1.21,0,0,0,.8-.11,1.11,1.11,0,0,0,.38-.8,13.86,13.86,0,0,0,.1-1.86V33c0-.55,0-1.05,0-1.52s0-.87,0-1.21a1.46,1.46,0,0,0-.09-.61l-1.53-.31.06-1.1h6.07l.08,1.1Z"/></g></g></svg>