<svg xmlns="http://www.w3.org/2000/svg" viewBox="0 0 71.01 70"><defs><style>.cls-1{fill:#49c0f5;}</style></defs><g id="elements"><path class="cls-1" d="M36.58,33.31c-3.36,0-6.71.21-10.08,0a.58.58,0,0,1-.55-.56c-.73-20.66,21.4-17.73,16.48-7.34a4.6,4.6,0,0,1-6.2,1.2c-2.43-1.34-1.86-5.08.85-5.23a2.43,2.43,0,0,1,1.7,1.42,3.33,3.33,0,0,1-1.4,2.38c3.8,2,5.55-4.95.08-5.77a6.25,6.25,0,0,0-6,2.73c-2.08,3.95,1.55,8.05,5.38,10A.58.58,0,0,1,36.58,33.31Z"/><path class="cls-1" d="M49.57,46.53c-3.36,0-6.71.21-10.07,0a.59.59,0,0,1-.56-.56c-.73-20.66,21.4-17.73,16.48-7.35a4.6,4.6,0,0,1-6.2,1.21c-2.43-1.34-1.86-5.08.85-5.23a2.39,2.39,0,0,1,1.7,1.42,3.32,3.32,0,0,1-1.4,2.38c3.8,2,5.55-4.95.08-5.77a6.25,6.25,0,0,0-6,2.73c-2.08,4,1.55,8,5.38,10A.58.58,0,0,1,49.57,46.53Z"/><path class="cls-1" d="M29.38,52.72c-3.36,0-6.71.21-10.07,0a.59.59,0,0,1-.55-.56C18,31.54,40.15,34.47,35.23,44.86A4.59,4.59,0,0,1,29,46.06c-2.44-1.34-1.87-5.08.85-5.23a2.43,2.43,0,0,1,1.7,1.42,3.36,3.36,0,0,1-1.41,2.38c3.81,2,5.56-5,.09-5.77a6.26,6.26,0,0,0-6,2.73c-2.08,3.95,1.56,8,5.38,10A.58.58,0,0,1,29.38,52.72Z"/></g></svg>