<svg xmlns="http://www.w3.org/2000/svg" viewBox="0 0 71.01 70"><defs><style>.cls-1{fill:#f55d5d;}</style></defs><g id="elements"><g id="woman"><path class="cls-1" d="M20.44,49.42c.35-1.2-.29-2-.85-2.89a33.88,33.88,0,0,1-4.07-8,10.87,10.87,0,0,1-.75-4.69A5.14,5.14,0,0,1,19.68,29c1.19-.11,2.39,0,3.64,0,.95-1.38,1.53-1.57,3-.9,1-2,2.15-2.58,4.09-2a2.2,2.2,0,0,0,.19-.3,5.15,5.15,0,0,1,3.65-3.18c.39-.1.51-.26.51-.63s.06-.91.09-1.44L32.49,21V18.85l2.33.39L34.43,17h2.11l-.4,2.29,2.36-.4V21l-2.36-.39.12,1.7A15.7,15.7,0,0,1,39,23.91a14.2,14.2,0,0,1,1.77,2.48c2.06-1,3.6-.48,4.56,1.67l.48-.19A1.69,1.69,0,0,1,48,28.6c.22.4.48.39.86.41a18.22,18.22,0,0,1,3.55.26c3.14.75,4.14,3.56,3.86,6a23.52,23.52,0,0,1-3.65,9.38c-.36.61-.74,1.22-1.12,1.82a4.69,4.69,0,0,0-1.06,3Zm19.7-18.77c-.82.64-1.63,1.25-2.41,1.89a.6.6,0,0,0-.19.46c0,.67.1,1.34.1,2,0,2,0,4,0,6.06a4,4,0,0,1,3.26-.36,4.06,4.06,0,0,1,2.39,2.41c.3-1,.61-1.81.83-2.69.46-1.89,1-3.78,1.27-5.7a4.84,4.84,0,0,0-.86-3.7C42.54,32.14,41.72,32.05,40.14,30.65ZM33.38,42c0-2.37,0-4.63,0-6.9,0-.71.08-1.42.08-2.12a.63.63,0,0,0-.24-.43c-.66-.5-1.34-1-2-1.49-1.62,1.09-2.69,1-4.36-.41a4.53,4.53,0,0,0-1.23,3.19,18,18,0,0,0,1,5.73c.22.78.47,1.56.71,2.35C29.74,40,31.33,40,33.38,42ZM23.23,29.87c-.55.05-1.14.09-1.72.18-2.76.43-4.14,2.16-4,4.95a34.31,34.31,0,0,0,1.92,8.18,3.94,3.94,0,0,1,2.17-2.39,3.87,3.87,0,0,1,3,0c-.51-1.71-1-3.45-1.56-5.19a6,6,0,0,1,.3-4.18A1.28,1.28,0,0,0,23.23,29.87Zm23.16,11c2.3-.84,3.67-.31,5.31,2.25.56-2.21,1.12-4.29,1.59-6.39a8.6,8.6,0,0,0,.18-2.32c-.17-2.93-2.15-4.6-5.19-4.45a2.86,2.86,0,0,1-.41.7c-.32.29-.29.54-.14.91a5.93,5.93,0,0,1,.3,3.83C47.52,37.24,46.94,39.06,46.39,40.86Z"/><path class="cls-1" d="M20.54,52.44V50.5H50.4v1.94Z"/></g></g></svg>