<svg xmlns="http://www.w3.org/2000/svg" viewBox="0 0 71.01 70"><defs><style>.cls-1{fill:#6df785;}</style></defs><g id="elements"><g id="woman"><rect class="cls-1" x="7.63" y="25.03" width="3.75" height="8.55"/><rect class="cls-1" x="7.63" y="29.84" width="14.26" height="3.75"/><rect class="cls-1" x="18.14" y="25.03" width="3.75" height="8.55"/><rect class="cls-1" x="18.14" y="39.29" width="3.75" height="8.55" transform="translate(40.03 87.13) rotate(180)"/><rect class="cls-1" x="7.63" y="39.29" width="14.26" height="3.75" transform="translate(29.53 82.33) rotate(180)"/><rect class="cls-1" x="7.63" y="39.29" width="3.75" height="8.55" transform="translate(19.02 87.13) rotate(180)"/><rect class="cls-1" x="12.89" y="29.84" width="3.75" height="13.2" transform="translate(29.53 72.88) rotate(180)"/><rect class="cls-1" x="28.37" y="20.03" width="3.75" height="8.55"/><rect class="cls-1" x="28.37" y="24.84" width="14.26" height="3.75"/><rect class="cls-1" x="38.88" y="20.03" width="3.75" height="8.55"/><rect class="cls-1" x="38.88" y="34.29" width="3.75" height="8.55" transform="translate(81.51 77.13) rotate(180)"/><rect class="cls-1" x="28.37" y="34.29" width="14.26" height="3.75" transform="translate(71.01 72.33) rotate(180)"/><rect class="cls-1" x="28.37" y="34.29" width="3.75" height="8.55" transform="translate(60.5 77.13) rotate(180)"/><rect class="cls-1" x="33.63" y="24.84" width="3.75" height="13.2" transform="translate(71.01 62.88) rotate(180)"/><rect class="cls-1" x="49.12" y="25.03" width="3.75" height="8.55"/><rect class="cls-1" x="49.12" y="29.84" width="14.26" height="3.75"/><rect class="cls-1" x="59.62" y="25.03" width="3.75" height="8.55"/><rect class="cls-1" x="59.62" y="39.29" width="3.75" height="8.55" transform="translate(123 87.13) rotate(180)"/><rect class="cls-1" x="49.12" y="39.29" width="14.26" height="3.75" transform="translate(112.49 82.33) rotate(180)"/><rect class="cls-1" x="49.12" y="39.29" width="3.75" height="8.55" transform="translate(101.98 87.13) rotate(180)"/><rect class="cls-1" x="54.37" y="29.84" width="3.75" height="13.2" transform="translate(112.49 72.88) rotate(180)"/></g></g></svg>