<svg xmlns="http://www.w3.org/2000/svg" viewBox="0 0 71.01 70"><defs><style>.cls-1{fill:#f55d5d;}</style></defs><g id="elements"><g id="woman"><path class="cls-1" d="M33,31.47v3.71a2.51,2.51,0,0,0,5,0V31.47Z"/><path class="cls-1" d="M33,24.13v3.71a2.51,2.51,0,1,0,5,0V24.13Z"/><path class="cls-1" d="M33,39.2v3.71a2.51,2.51,0,0,0,5,0V39.2Z"/><path class="cls-1" d="M27,31.47v3.71a2.51,2.51,0,0,0,5,0V31.47Z"/><path class="cls-1" d="M39,31.47v3.71a2.51,2.51,0,0,0,5,0V31.47Z"/><path class="cls-1" d="M45,17.57H20.87V37.19a14.64,14.64,0,1,0,29.27,0V17.57ZM24.84,35.4H22.05V32.19h2.79Zm0-13.73H22.05v-3.2h2.79Zm9.27-3.2H36.9v3.2H34.11ZM28.3,48.84,26,46.57l2-2,2.27,2.27ZM26,37.19V22.68H45V37.19a9.53,9.53,0,0,1-19,0ZM42.83,48.84l-2-2,2.27-2.27,2,2ZM49,35.4H46.17V32.19H49Zm0-13.73H46.17v-3.2H49Z"/></g></g></svg>